<?xml version="1.0" encoding="utf-8"?>
<!-- Generator: Adobe Illustrator 16.0.0, SVG Export Plug-In . SVG Version: 6.00 Build 0)  -->
<!DOCTYPE svg PUBLIC "-//W3C//DTD SVG 1.1//EN" "http://www.w3.org/Graphics/SVG/1.1/DTD/svg11.dtd">
<svg version="1.1" id="Layer_1" xmlns="http://www.w3.org/2000/svg" xmlns:xlink="http://www.w3.org/1999/xlink" x="0px" y="0px"
	 width="400px" height="200px" viewBox="0 0 400 200" enable-background="new 0 0 400 200" xml:space="preserve">
<path fill="#FFFFFF" d="M376.653,93.973c-0.68-3.656-1.916-7.347-3.776-11.281c-2.076-4.392-4.839-8.303-8.205-11.62
	c-3.646-3.596-8.354-6.511-13.98-8.658c-5.354-2.049-11.365-3.088-17.863-3.088c-10.921,0-19.178,2.88-25.293,6.58
	c-0.106-6.634-2.744-12.829-7.449-17.467c-4.753-4.696-11.057-7.283-17.75-7.283c-6.729,0-13.047,2.611-17.771,7.334
	c-3.261,3.251-5.516,7.249-6.61,11.617c-3.73,0.015-7.402,0.884-10.827,2.546c-0.753-5.597-3.377-10.709-7.591-14.665
	c-4.78-4.47-10.794-6.832-17.391-6.832c-6.6,0-12.813,2.45-17.521,6.921c-3.89,3.709-6.391,8.479-7.268,13.726
	c-4.903-1.638-10.122-2.478-15.536-2.478c-6.635,0-12.284,1.02-17.069,2.614l-27.558-11.743l-2.518-0.031
	c-7.206,0-13.035,3.075-17.342,7.617c-1.578-2.024-3.215-3.717-4.778-5.113c-8.565-7.643-19.363-11.518-32.093-11.518H55.104
	c-6.902,0-13.373,2.672-18.211,7.518c-4.841,4.843-7.508,11.287-7.508,18.146v67.394c0,6.857,2.667,13.303,7.51,18.149
	c4.843,4.845,11.313,7.513,18.217,7.513c6.898,0,13.353-2.654,18.183-7.479c4.824-4.824,7.48-11.281,7.48-18.184v-2.448
	c5.85-0.028,11.28-0.888,16.272-2.549c0.587,3.078,1.308,6.209,2.199,9.35c0.141,0.586,0.301,1.163,0.471,1.735
	c0.017,0.204,0.017,0.405,0.04,0.61c0.88,7.893,5.868,14.325,12.547,17.036c5.863,4.218,13.142,6.656,21.007,6.656
	c1.461,0,2.949-0.084,4.419-0.248c0.378-0.042,0.754-0.102,1.13-0.156c0.442,0.027,0.887,0.045,1.336,0.045
	c3.393,0,6.922-0.812,10.239-2.362c3.208-1.508,6.041-3.646,8.191-6.18c0.326-0.384,0.634-0.775,0.927-1.175
	c5.739,2.775,13.05,4.764,22.265,4.766h0.004c7.267,0,13.941-1.299,19.844-3.864c1.661-0.723,3.213-1.483,4.684-2.276
	c4.436,3.51,9.961,5.423,15.793,5.423c6.602,0,12.616-2.362,17.423-6.859c0.39-0.366,0.765-0.741,1.127-1.127
	c4.672,5.108,11.208,7.986,18.333,7.986c5.277,0,10.299-1.634,14.498-4.654c4.527,2.603,10.611,4.653,18.555,4.653
	c5.906,0,11.488-2.04,15.918-5.77c6.247,3.636,14.734,6.484,26.002,6.484c5.463,0,10.752-0.771,15.73-2.295
	c4.858-1.49,8.485-3.029,11.443-4.86c2.498-1.554,4.722-3.24,6.613-5.019c5.198-4.75,8.057-11.192,8.057-18.18
	c0-3.135-0.589-6.178-1.714-9.004c1.011-1.865,1.794-3.919,2.342-6.143c0.549-2.233,0.869-4.217,0.975-6.018
	c0.068-1.106,0.099-2.422,0.099-4.264C377.545,100.349,377.244,97.139,376.653,93.973z"/>
<g>
	<g>
		<path fill="#95CB70" d="M133.978,143.424c-8.602,0.963-15.764-3.705-17.441-11.357c-5.568-19.274-3.058-38.627-2.948-39.441
			l0.016-0.095c1.213-6.443,5.673-13.305,12.899-14.112c8.063-0.903,15.351,4.835,16.241,12.792c0.085,0.756,0.103,1.55,0.053,2.426
			l-0.014,0.152c-1.589,11.382,2.304,21.849,3.584,24.89c0.85,1.648,1.555,4.098,1.797,6.27
			C149.178,133.988,142.677,142.45,133.978,143.424z"/>
		<path fill="#4D8239" d="M133.868,145.604c-9.397,1.051-17.221-4.047-19.053-12.408c-6.085-21.063-3.34-42.206-3.222-43.098
			l0.017-0.101c1.326-7.04,6.199-14.539,14.094-15.421c8.811-0.985,16.772,5.286,17.745,13.979c0.092,0.827,0.111,1.694,0.059,2.652
			l-0.015,0.164c-1.738,12.437,2.516,23.873,3.916,27.198c0.929,1.8,1.697,4.477,1.963,6.849
			C150.477,135.296,143.377,144.541,133.868,145.604z M115.458,90.668c-0.145,1.133-2.609,21.705,3.125,41.506l0.033,0.135
			c1.369,6.366,7.463,10.238,14.818,9.418c7.406-0.826,12.928-8.1,12.057-15.877c-0.21-1.899-0.86-4.177-1.576-5.539l-0.071-0.146
			c-1.463-3.456-6.088-15.764-4.228-29.25c0.035-0.706,0.019-1.335-0.047-1.925c-0.732-6.552-6.756-11.277-13.429-10.53
			C120.276,79.113,116.498,85.235,115.458,90.668z"/>
		<g>
			
				<ellipse transform="matrix(0.5249 -0.8512 0.8512 0.5249 -38.9891 160.8022)" fill="#C7E3B4" cx="124.547" cy="115.326" rx="2.136" ry="2.806"/>
			<path fill="#4D8239" d="M125.404,119.162c-1.644,0.188-2.946-0.16-3.877-1.027c-1.799-1.678-1.353-4.609-1.333-4.732
				c0.084-0.532,0.584-0.894,1.117-0.809c0.531,0.084,0.894,0.584,0.811,1.113c-0.087,0.564-0.121,2.204,0.74,3.004
				c0.632,0.585,1.723,0.705,3.237,0.354c0.52-0.129,1.049,0.203,1.172,0.729c0.123,0.523-0.205,1.053-0.73,1.172
				C126.147,119.059,125.767,119.124,125.404,119.162z"/>
		</g>
		<g>
			<path fill="#C7E3B4" d="M140.09,120.238c-0.62,1.004-2.19,1.158-3.509,0.347c-1.32-0.813-1.888-2.288-1.268-3.293
				c0.62-1.003,2.19-1.155,3.508-0.347C140.142,117.762,140.709,119.236,140.09,120.238z"/>
			<path fill="#4D8239" d="M138.558,122.604c-1.645,0.183-2.944-0.16-3.878-1.031c-1.798-1.674-1.352-4.604-1.333-4.729
				c0.085-0.533,0.587-0.894,1.117-0.813c0.533,0.085,0.895,0.587,0.811,1.117c-0.086,0.564-0.12,2.203,0.742,3
				c0.633,0.588,1.722,0.707,3.238,0.355c0.519-0.129,1.05,0.201,1.171,0.729c0.123,0.523-0.204,1.047-0.729,1.172
				C139.301,122.496,138.92,122.563,138.558,122.604z"/>
		</g>
		<g>
			
				<ellipse transform="matrix(0.5254 -0.8508 0.8508 0.5254 -27.0737 162.6934)" fill="#C7E3B4" cx="132.305" cy="105.616" rx="2.134" ry="2.806"/>
			<path fill="#4D8239" d="M133.159,109.456c-1.645,0.183-2.946-0.161-3.878-1.03c-1.797-1.676-1.353-4.605-1.334-4.73
				c0.085-0.53,0.586-0.895,1.118-0.809c0.531,0.084,0.895,0.584,0.811,1.115c-0.085,0.563-0.121,2.201,0.741,2.998
				c0.633,0.588,1.723,0.708,3.236,0.355c0.521-0.127,1.049,0.203,1.172,0.729c0.124,0.527-0.202,1.053-0.729,1.172
				C133.901,109.35,133.523,109.417,133.159,109.456z"/>
		</g>
		<g>
			
				<ellipse transform="matrix(0.5248 -0.8512 0.8512 0.5248 -20.5049 152.3005)" fill="#C7E3B4" cx="126.152" cy="94.515" rx="2.136" ry="2.806"/>
			<path fill="#4D8239" d="M127.006,98.357c-1.644,0.184-2.945-0.163-3.877-1.032c-1.798-1.674-1.354-4.605-1.335-4.729
				c0.086-0.53,0.588-0.893,1.119-0.809c0.532,0.085,0.894,0.583,0.811,1.116c-0.086,0.563-0.121,2.203,0.741,2.998
				c0.632,0.586,1.722,0.707,3.237,0.355c0.52-0.126,1.05,0.203,1.173,0.729c0.122,0.526-0.204,1.05-0.73,1.171
				C127.748,98.248,127.369,98.316,127.006,98.357z"/>
		</g>
		<g>
			<path fill="#C7E3B4" d="M132.66,132.855c-0.618,1.006-2.189,1.16-3.508,0.347c-1.319-0.815-1.888-2.288-1.269-3.29
				c0.619-1.006,2.19-1.16,3.511-0.346C132.713,130.381,133.28,131.855,132.66,132.855z"/>
			<path fill="#4D8239" d="M131.13,135.223c-1.644,0.184-2.946-0.162-3.879-1.031c-1.797-1.676-1.353-4.604-1.333-4.729
				c0.085-0.53,0.586-0.896,1.119-0.812c0.531,0.086,0.893,0.584,0.81,1.113c-0.086,0.566-0.121,2.203,0.741,3.004
				c0.633,0.584,1.723,0.705,3.239,0.353c0.518-0.126,1.049,0.206,1.171,0.729c0.122,0.526-0.203,1.051-0.729,1.174
				C131.872,135.113,131.492,135.182,131.13,135.223z"/>
		</g>
		
			<ellipse transform="matrix(0.3785 -0.9256 0.9256 0.3785 3.9069 174.536)" fill="#C7E3B4" cx="131.926" cy="84.359" rx="2.974" ry="4.894"/>
		
			<ellipse transform="matrix(0.087 -0.9962 0.9962 0.087 35.5636 230.7749)" fill="#4D8239" cx="143.68" cy="95.986" rx="3.004" ry="1.647"/>
		
			<ellipse transform="matrix(0.1115 0.9938 -0.9938 0.1115 187.1063 -35.2343)" fill="#4D8239" cx="113.258" cy="87.02" rx="2.774" ry="1.971"/>
		
			<ellipse transform="matrix(0.1114 0.9938 -0.9938 0.1114 211.6622 -10.1186)" fill="#4D8239" cx="111.489" cy="113.299" rx="2.915" ry="1.525"/>
		<path fill="#4D8239" d="M150.049,121.577c0.164,1.465-0.478,2.743-1.433,2.851c-0.953,0.104-1.86-0.998-2.024-2.465
			c-0.164-1.466,0.478-2.742,1.431-2.847C148.977,119.007,149.884,120.107,150.049,121.577z"/>
		
			<ellipse transform="matrix(0.1111 0.9938 -0.9938 0.1111 241.3465 5.93)" fill="#4D8239" cx="117.358" cy="137.876" rx="2.607" ry="1.586"/>
		<path fill="#4D8239" d="M125.079,76.162c0,0,1.981-8.932,7.809-8.855l2.952,0.776c0,0-6.352,0.382-3.841,8.172L125.079,76.162z"/>
		<path fill="#4D8239" d="M143.506,141.675c0.391,0.831-0.769,2.197-2.591,3.054c-1.823,0.853-3.616,0.873-4.006,0.043
			c-0.391-0.834,0.771-2.201,2.593-3.055C141.324,140.863,143.116,140.846,143.506,141.675z"/>
	</g>
	<path d="M45.521,133.35V65.956c0-2.12,0.746-3.928,2.238-5.421c1.492-1.494,3.319-2.243,5.481-2.243h25.361
		c8.217,0,14.919,2.318,20.109,6.948c5.188,4.634,7.784,11.409,7.784,20.325c0,8.875-2.583,15.648-7.749,20.326
		c-5.167,4.674-11.876,7.012-20.133,7.012H60.911v20.447c0,2.166-0.737,3.984-2.208,5.455c-1.472,1.471-3.29,2.207-5.455,2.207
		c-2.166,0-3.993-0.744-5.487-2.238C46.268,137.279,45.521,135.473,45.521,133.35z M60.911,99.072h16.494
		c4.156,0,7.391-1.18,9.707-3.538c2.316-2.361,3.474-5.683,3.474-9.969c0-4.326-1.168-7.65-3.506-9.967
		c-2.338-2.317-5.563-3.474-9.675-3.474H60.911V99.072z"/>
	<path d="M158.563,132.404c-5.043-5.348-7.565-13.354-7.565-24.023c0-10.663,2.509-18.651,7.532-23.957
		c5.021-5.305,12.164-7.958,21.429-7.958c3.722,0,7.207,0.585,10.453,1.753c3.247,1.169,5.672,2.37,7.273,3.604
		c1.601,1.234,2.922,2.502,3.959,3.801c0.955,1.386,1.431,2.748,1.431,4.091c0,1.774-0.617,3.288-1.851,4.544
		c-1.234,1.255-2.739,1.884-4.514,1.884c-1.905,0-3.551-0.757-4.936-2.273c-3.203-3.463-7.143-5.195-11.817-5.195
		c-4.633,0-8.182,1.715-10.649,5.141c-2.467,3.426-3.7,8.282-3.7,14.566c0,6.417,1.232,11.328,3.7,14.731
		c2.468,3.404,6.017,5.107,10.649,5.107c1.861,0,3.712-0.33,5.553-0.984c1.838-0.655,3.202-1.276,4.091-1.868
		c0.886-0.591,2.066-1.433,3.539-2.522c1.254-0.877,2.574-1.314,3.96-1.314c1.774,0,3.278,0.619,4.512,1.855
		c1.234,1.232,1.852,2.735,1.852,4.51c0,1.906-0.757,3.551-2.271,4.937c-2.08,1.903-4.936,3.646-8.571,5.228
		c-3.636,1.58-7.857,2.369-12.662,2.369C170.737,140.428,163.604,137.752,158.563,132.404z"/>
	<path d="M213.139,132.83V65.181c0-1.992,0.684-3.637,2.045-4.935c1.365-1.297,3.063-1.949,5.099-1.949
		c1.989,0,3.688,0.662,5.098,1.981c1.406,1.32,2.109,2.953,2.109,4.902v32.648l24.092-18.894c1.515-1.127,3.051-1.689,4.608-1.689
		c1.904,0,3.539,0.671,4.903,2.013c1.363,1.342,2.044,2.966,2.044,4.871c0,2.338-0.887,4.157-2.66,5.455l-17.468,13.313
		l19.546,25.646c0.993,1.432,1.493,2.859,1.493,4.288c0,1.903-0.673,3.53-2.013,4.87c-1.342,1.341-2.969,2.011-4.871,2.011
		c-2.381,0-4.242-0.931-5.584-2.791l-19.87-26.556l-4.222,3.309v19.157c0,1.946-0.703,3.582-2.109,4.903
		c-1.408,1.317-3.107,1.978-5.098,1.978c-2.035,0-3.732-0.647-5.098-1.946C213.82,136.467,213.139,134.82,213.139,132.83z"/>
	<path d="M273.332,122.7V65.441c0-1.992,0.691-3.68,2.079-5.064c1.385-1.385,3.073-2.08,5.062-2.08c1.993,0,3.691,0.697,5.098,2.087
		c1.41,1.389,2.111,3.083,2.111,5.079v58.854c0,0.74,0.283,1.324,0.846,1.761c0.563,0.435,1.127,0.649,1.688,0.649
		c1.862,0,3.429,0.625,4.707,1.879c1.277,1.25,1.917,2.789,1.917,4.615c0,1.824-0.64,3.362-1.917,4.613
		c-1.278,1.253-2.845,1.877-4.707,1.877c-5.28,0-9.416-1.458-12.401-4.382C274.826,132.406,273.332,128.197,273.332,122.7z"/>
	<path d="M302.229,108.006c0-10.063,2.518-17.835,7.558-23.315c5.034-5.482,12.097-8.224,21.178-8.224
		c4.312,0,8.122,0.633,11.433,1.899c3.31,1.264,5.901,2.818,7.771,4.662c1.873,1.845,3.396,4.01,4.572,6.497
		c1.176,2.486,1.962,4.781,2.354,6.882c0.393,2.104,0.588,4.182,0.588,6.238c0,1.373-0.021,2.428-0.065,3.158
		c-0.043,0.729-0.205,1.672-0.488,2.823c-0.282,1.151-0.687,2.028-1.207,2.627c-0.521,0.597-1.325,1.128-2.413,1.595
		c-1.091,0.465-2.414,0.697-3.979,0.697h-32.948c0,4.564,1.433,8.023,4.294,10.373c2.864,2.348,6.619,3.523,11.262,3.523
		c4.69,0,9.103-1.401,13.229-4.201c1.571-0.963,3.015-1.443,4.323-1.443c1.748,0,3.23,0.609,4.455,1.83
		c1.223,1.221,1.836,2.703,1.836,4.445c0,1.959-0.762,3.615-2.285,4.969c-1.047,1.002-2.344,1.982-3.887,2.941
		c-1.55,0.959-3.955,1.938-7.221,2.94c-3.268,1-6.751,1.503-10.451,1.503c-9.517,0-16.879-2.678-22.09-8.039
		C304.834,127.025,302.229,118.898,302.229,108.006z M316.967,101.336h26.365c0-3.52-1.055-6.509-3.158-8.97
		c-2.104-2.463-5.175-3.692-9.21-3.692c-3.993,0-7.248,1.094-9.765,3.278C318.682,94.137,317.271,97.263,316.967,101.336z"/>
</g>
</svg>
