<?xml version="1.0" encoding="utf-8"?>
<!-- Generator: Adobe Illustrator 16.0.0, SVG Export Plug-In . SVG Version: 6.00 Build 0)  -->
<!DOCTYPE svg PUBLIC "-//W3C//DTD SVG 1.1//EN" "http://www.w3.org/Graphics/SVG/1.1/DTD/svg11.dtd">
<svg version="1.1" id="Layer_1" xmlns="http://www.w3.org/2000/svg" xmlns:xlink="http://www.w3.org/1999/xlink" x="0px" y="0px"
	 width="400px" height="200px" viewBox="0 0 400 200" enable-background="new 0 0 400 200" xml:space="preserve">
<g>
	<g>
		<path fill="#95CB70" d="M133.978,143.424c-8.602,0.962-15.764-3.705-17.441-11.358c-5.568-19.274-3.058-38.627-2.948-39.441
			l0.016-0.095c1.213-6.443,5.673-13.305,12.899-14.112c8.063-0.903,15.351,4.835,16.241,12.792c0.085,0.756,0.103,1.55,0.053,2.426
			l-0.014,0.152c-1.589,11.382,2.304,21.848,3.584,24.889c0.85,1.649,1.555,4.098,1.797,6.27
			C149.178,133.989,142.677,142.45,133.978,143.424z"/>
		<path fill="#4D8239" d="M133.868,145.604c-9.397,1.051-17.221-4.048-19.053-12.409c-6.085-21.062-3.34-42.205-3.222-43.098
			l0.017-0.101c1.326-7.04,6.199-14.539,14.094-15.421c8.811-0.985,16.772,5.286,17.745,13.979c0.092,0.827,0.111,1.694,0.059,2.652
			l-0.015,0.164c-1.738,12.437,2.516,23.873,3.916,27.198c0.929,1.8,1.697,4.477,1.963,6.849
			C150.477,135.296,143.377,144.541,133.868,145.604z M115.458,90.668c-0.145,1.133-2.609,21.705,3.125,41.506l0.033,0.135
			c1.369,6.366,7.463,10.238,14.818,9.417c7.406-0.826,12.928-8.099,12.057-15.876c-0.21-1.9-0.86-4.177-1.576-5.539l-0.071-0.147
			c-1.463-3.456-6.088-15.763-4.228-29.25c0.035-0.706,0.019-1.335-0.047-1.925c-0.732-6.552-6.756-11.277-13.429-10.53
			C120.276,79.113,116.498,85.235,115.458,90.668z"/>
		<g>
			
				<ellipse transform="matrix(0.8511 0.525 -0.525 0.8511 79.0913 -48.2155)" fill="#C7E3B4" cx="124.547" cy="115.327" rx="2.806" ry="2.136"/>
			<path fill="#4D8239" d="M125.404,119.162c-1.644,0.187-2.946-0.16-3.877-1.027c-1.799-1.678-1.353-4.609-1.333-4.732
				c0.084-0.533,0.584-0.894,1.117-0.809c0.531,0.084,0.894,0.583,0.811,1.113c-0.087,0.565-0.121,2.204,0.74,3.004
				c0.632,0.585,1.723,0.705,3.237,0.353c0.52-0.128,1.049,0.204,1.172,0.729c0.123,0.523-0.205,1.052-0.73,1.172
				C126.147,119.058,125.767,119.124,125.404,119.162z"/>
		</g>
		<g>
			<path fill="#C7E3B4" d="M140.09,120.239c-0.62,1.003-2.19,1.158-3.509,0.346c-1.32-0.814-1.888-2.288-1.268-3.293
				c0.62-1.003,2.19-1.155,3.508-0.346C140.142,117.762,140.709,119.236,140.09,120.239z"/>
			<path fill="#4D8239" d="M138.558,122.603c-1.645,0.183-2.944-0.159-3.878-1.031c-1.798-1.674-1.352-4.604-1.333-4.729
				c0.085-0.532,0.587-0.893,1.117-0.812c0.533,0.085,0.895,0.587,0.811,1.117c-0.086,0.565-0.12,2.204,0.742,3.001
				c0.633,0.588,1.722,0.707,3.238,0.355c0.519-0.129,1.05,0.201,1.171,0.729c0.123,0.523-0.204,1.047-0.729,1.171
				C139.301,122.496,138.92,122.563,138.558,122.603z"/>
		</g>
		<g>
			
				<ellipse transform="matrix(0.8509 0.5253 -0.5253 0.8509 75.2115 -53.754)" fill="#C7E3B4" cx="132.302" cy="105.62" rx="2.806" ry="2.134"/>
			<path fill="#4D8239" d="M133.159,109.456c-1.645,0.182-2.946-0.161-3.878-1.03c-1.797-1.676-1.353-4.606-1.334-4.73
				c0.085-0.531,0.586-0.895,1.118-0.809c0.531,0.083,0.895,0.583,0.811,1.115c-0.085,0.563-0.121,2.201,0.741,2.998
				c0.633,0.588,1.723,0.708,3.236,0.355c0.521-0.127,1.049,0.203,1.172,0.729c0.124,0.527-0.202,1.053-0.729,1.172
				C133.901,109.35,133.523,109.417,133.159,109.456z"/>
		</g>
		<g>
			
				<ellipse transform="matrix(0.8512 0.5248 -0.5248 0.8512 68.3777 -52.1434)" fill="#C7E3B4" cx="126.149" cy="94.52" rx="2.806" ry="2.136"/>
			<path fill="#4D8239" d="M127.006,98.357c-1.644,0.184-2.945-0.163-3.877-1.032c-1.798-1.674-1.354-4.605-1.335-4.729
				c0.086-0.53,0.588-0.893,1.119-0.809c0.532,0.085,0.894,0.583,0.811,1.116c-0.086,0.563-0.121,2.203,0.741,2.998
				c0.632,0.586,1.722,0.707,3.237,0.355c0.52-0.126,1.05,0.203,1.173,0.729c0.122,0.526-0.204,1.05-0.73,1.171
				C127.748,98.248,127.369,98.316,127.006,98.357z"/>
		</g>
		<g>
			<path fill="#C7E3B4" d="M132.66,132.856c-0.618,1.006-2.189,1.16-3.508,0.346c-1.319-0.815-1.888-2.288-1.269-3.29
				c0.619-1.005,2.19-1.16,3.511-0.346C132.713,130.381,133.28,131.856,132.66,132.856z"/>
			<path fill="#4D8239" d="M131.13,135.222c-1.644,0.184-2.946-0.161-3.879-1.031c-1.797-1.676-1.353-4.604-1.333-4.729
				c0.085-0.531,0.586-0.895,1.119-0.811c0.531,0.085,0.893,0.584,0.81,1.113c-0.086,0.566-0.121,2.203,0.741,3.003
				c0.633,0.585,1.723,0.706,3.239,0.353c0.518-0.126,1.049,0.206,1.171,0.729c0.122,0.527-0.203,1.052-0.729,1.174
				C131.872,135.114,131.492,135.181,131.13,135.222z"/>
		</g>
		
			<ellipse transform="matrix(0.9256 0.3785 -0.3785 0.9256 41.7508 -43.6591)" fill="#C7E3B4" cx="131.921" cy="84.362" rx="4.894" ry="2.974"/>
		
			<ellipse transform="matrix(0.9962 0.0869 -0.0869 0.9962 8.88 -12.1179)" fill="#4D8239" cx="143.687" cy="95.982" rx="1.647" ry="3.004"/>
		
			<ellipse transform="matrix(-0.9938 0.1115 -0.1115 -0.9938 235.5183 160.875)" fill="#4D8239" cx="113.26" cy="87.023" rx="1.971" ry="2.774"/>
		
			<ellipse transform="matrix(-0.9938 0.1114 -0.1114 -0.9938 234.9101 213.4803)" fill="#4D8239" cx="111.49" cy="113.304" rx="1.525" ry="2.914"/>
		<path fill="#4D8239" d="M150.049,121.577c0.164,1.465-0.478,2.743-1.433,2.85c-0.953,0.104-1.86-0.997-2.024-2.464
			c-0.164-1.466,0.478-2.743,1.431-2.847C148.977,119.007,149.884,120.108,150.049,121.577z"/>
		
			<ellipse transform="matrix(-0.9938 0.1111 -0.1111 -0.9938 249.3022 261.8638)" fill="#4D8239" cx="117.353" cy="137.88" rx="1.586" ry="2.607"/>
		<path fill="#4D8239" d="M125.079,76.162c0,0,1.981-8.932,7.809-8.855l2.952,0.776c0,0-6.352,0.382-3.841,8.172L125.079,76.162z"/>
		<path fill="#4D8239" d="M143.506,141.675c0.391,0.831-0.769,2.197-2.591,3.053c-1.823,0.853-3.616,0.873-4.006,0.043
			c-0.391-0.834,0.771-2.2,2.593-3.054C141.324,140.863,143.116,140.845,143.506,141.675z"/>
	</g>
	<path d="M45.521,133.349V65.956c0-2.12,0.746-3.928,2.238-5.421c1.492-1.494,3.319-2.243,5.481-2.243h25.361
		c8.217,0,14.919,2.318,20.109,6.948c5.188,4.634,7.784,11.409,7.784,20.325c0,8.875-2.583,15.648-7.749,20.326
		c-5.167,4.674-11.876,7.012-20.133,7.012H60.911v20.446c0,2.166-0.737,3.985-2.208,5.455c-1.472,1.472-3.29,2.207-5.455,2.207
		c-2.166,0-3.993-0.744-5.487-2.238C46.268,137.279,45.521,135.472,45.521,133.349z M60.911,99.072h16.494
		c4.156,0,7.391-1.18,9.707-3.538c2.316-2.361,3.474-5.683,3.474-9.969c0-4.326-1.168-7.65-3.506-9.967s-5.563-3.474-9.675-3.474
		H60.911V99.072z"/>
	<path d="M158.563,132.404c-5.043-5.348-7.565-13.354-7.565-24.023c0-10.663,2.509-18.651,7.532-23.957
		c5.021-5.305,12.164-7.958,21.429-7.958c3.722,0,7.207,0.585,10.453,1.753c3.247,1.169,5.672,2.37,7.273,3.604
		c1.601,1.234,2.922,2.502,3.96,3.801c0.955,1.386,1.43,2.748,1.43,4.091c0,1.774-0.617,3.288-1.851,4.544
		c-1.234,1.255-2.738,1.884-4.513,1.884c-1.905,0-3.551-0.757-4.936-2.273c-3.203-3.463-7.143-5.195-11.817-5.195
		c-4.633,0-8.182,1.715-10.649,5.141s-3.7,8.282-3.7,14.566c0,6.417,1.232,11.328,3.7,14.732s6.017,5.107,10.649,5.107
		c1.861,0,3.712-0.33,5.553-0.984c1.838-0.656,3.202-1.277,4.091-1.869c0.886-0.591,2.066-1.432,3.539-2.523
		c1.254-0.877,2.574-1.313,3.96-1.313c1.774,0,3.278,0.619,4.513,1.854c1.233,1.233,1.851,2.736,1.851,4.511
		c0,1.905-0.757,3.551-2.272,4.936c-2.079,1.904-4.935,3.646-8.571,5.227c-3.636,1.581-7.857,2.37-12.662,2.37
		C170.737,140.427,163.604,137.752,158.563,132.404z"/>
	<path d="M213.139,132.83V65.181c0-1.992,0.683-3.637,2.045-4.935c1.365-1.297,3.063-1.949,5.098-1.949
		c1.99,0,3.688,0.662,5.098,1.981c1.406,1.32,2.109,2.953,2.109,4.902v32.648l24.092-18.894c1.515-1.127,3.051-1.689,4.608-1.689
		c1.905,0,3.54,0.671,4.904,2.013c1.363,1.342,2.044,2.966,2.044,4.871c0,2.338-0.887,4.157-2.661,5.455l-17.467,13.313
		l19.546,25.646c0.993,1.431,1.493,2.86,1.493,4.288c0,1.904-0.673,3.53-2.013,4.87c-1.342,1.341-2.968,2.011-4.871,2.011
		c-2.381,0-4.242-0.931-5.584-2.791l-19.87-26.556l-4.222,3.309v19.157c0,1.947-0.703,3.582-2.109,4.903
		c-1.409,1.318-3.107,1.978-5.098,1.978c-2.035,0-3.732-0.647-5.098-1.947C213.821,136.467,213.139,134.821,213.139,132.83z"/>
	<path d="M273.332,122.7V65.441c0-1.992,0.691-3.68,2.079-5.064c1.385-1.385,3.073-2.08,5.062-2.08c1.993,0,3.691,0.697,5.098,2.087
		c1.409,1.389,2.111,3.083,2.111,5.079v58.854c0,0.739,0.283,1.324,0.846,1.76c0.562,0.434,1.126,0.65,1.688,0.65
		c1.862,0,3.429,0.625,4.707,1.878c1.277,1.251,1.917,2.79,1.917,4.615s-0.64,3.363-1.917,4.614
		c-1.278,1.253-2.845,1.877-4.707,1.877c-5.281,0-9.416-1.458-12.402-4.382C274.826,132.406,273.332,128.197,273.332,122.7z"/>
	<path d="M302.229,108.006c0-10.063,2.517-17.835,7.557-23.315c5.035-5.482,12.097-8.224,21.178-8.224
		c4.311,0,8.122,0.633,11.433,1.899c3.309,1.264,5.901,2.818,7.771,4.662c1.873,1.845,3.397,4.01,4.572,6.497
		c1.176,2.486,1.962,4.781,2.354,6.882c0.392,2.103,0.588,4.182,0.588,6.237c0,1.374-0.021,2.429-0.066,3.158
		c-0.043,0.729-0.205,1.672-0.488,2.824c-0.283,1.151-0.687,2.028-1.207,2.627c-0.521,0.596-1.326,1.128-2.413,1.594
		c-1.091,0.466-2.414,0.698-3.979,0.698h-32.948c0,4.565,1.432,8.024,4.294,10.373c2.864,2.347,6.619,3.523,11.262,3.523
		c4.69,0,9.102-1.401,13.229-4.201c1.571-0.962,3.015-1.443,4.323-1.443c1.748,0,3.231,0.61,4.455,1.83
		c1.223,1.22,1.836,2.703,1.836,4.446c0,1.959-0.761,3.615-2.285,4.968c-1.047,1.002-2.343,1.982-3.887,2.942
		c-1.549,0.958-3.954,1.938-7.22,2.94c-3.267,1-6.751,1.503-10.452,1.503c-9.516,0-16.878-2.678-22.089-8.04
		C304.834,127.025,302.229,118.899,302.229,108.006z M316.967,101.336h26.365c0-3.52-1.054-6.509-3.158-8.97
		c-2.104-2.463-5.175-3.692-9.21-3.692c-3.994,0-7.248,1.094-9.765,3.278C318.682,94.137,317.271,97.263,316.967,101.336z"/>
</g>
</svg>
